<?xml version="1.0" encoding="UTF-8"?>
<svg width="28px" height="34px" viewBox="0 0 28 34" version="1.1" xmlns="http://www.w3.org/2000/svg" xmlns:xlink="http://www.w3.org/1999/xlink">
    <!-- Generator: Sketch 61 (89581) - https://sketch.com -->
    <title>Group 15 Copy</title>
    <desc>Created with Sketch.</desc>
    <defs>
        <polygon id="path-1" points="0.0737058824 0 4.94370588 0 4.94370588 4.97228 0.0737058824 4.97228"></polygon>
        <polygon id="path-3" points="0.0480395254 0.0362132964 27.944911 0.0362132964 27.944911 34 0.0480395254 34"></polygon>
        <polygon id="path-5" points="0 0.0276424581 17.9752927 0.0276424581 17.9752927 25.9979979 0 25.9979979"></polygon>
        <polygon id="path-7" points="0.0737058824 0 4.94370588 0 4.94370588 4.97228 0.0737058824 4.97228"></polygon>
    </defs>
    <g id="Welcome" stroke="none" stroke-width="1" fill="none" fill-rule="evenodd">
        <g id="INICIO" transform="translate(-97.000000, -25.000000)">
            <g id="Group-15-Copy" transform="translate(97.000000, 25.000000)">
                <g id="Group-3" transform="translate(23.000000, 0.000000)">
                    <mask id="mask-2" fill="white">
                        <use xlink:href="#path-1"></use>
                    </mask>
                    <g id="Clip-2"></g>
                    <path d="M4.94370588,2.48618 C4.94370588,3.86018 3.85341176,4.97228 2.50635294,4.97228 C1.164,4.97228 0.0737058824,3.86018 0.0737058824,2.48618 C0.0737058824,1.11208 1.164,-2e-05 2.50635294,-2e-05 C3.85341176,-2e-05 4.94370588,1.11208 4.94370588,2.48618" id="Fill-1" fill="#D7D9DC" mask="url(#mask-2)"></path>
                </g>
                <path d="M2.02831028,34 C3.84324894,34 6.379391,33.9998218 7.62917825,33.9996435 C7.93442583,33.9996435 8.12119457,33.6396786 7.90946848,33.4252504 C4.58209618,30.0552697 2.90913101,27.9146416 0.455905863,23.1208433 C0.344192014,22.9025828 0,23.0015977 0,23.2455254 L0,32.0222875 C0,33.114481 0.907880714,34 2.02831028,34" id="Fill-4" fill="#202020"></path>
                <g id="Group-8">
                    <mask id="mask-4" fill="white">
                        <use xlink:href="#path-3"></use>
                    </mask>
                    <g id="Clip-7"></g>
                    <path d="M25.5609795,6.2181856 C26.276226,6.2181856 26.9461164,6.0371662 27.5248151,5.71779224 C27.7135274,5.61362604 27.944911,5.74265651 27.944911,5.95522715 L27.944911,32.7710554 C27.944911,33.4497368 27.3848151,34.0000471 26.6937329,34.0000471 L24.2955137,34.0000471 C20.3285274,33.3110997 6.74497945,18.4052548 0.0764726027,0.622689751 C-0.0324589041,0.338728532 0.1855,0.0362132964 0.49359589,0.0362132964 L4.0655137,0.0362132964 C4.69330822,0.0362132964 5.26222603,0.399193906 5.5174863,0.962501385 L5.55536301,1.0463241 C11.7073082,14.6393546 18.5085274,22.7579141 21.9305685,25.7650776 C22.3711849,26.1515097 23.0679247,25.8441911 23.0679247,25.2623296 L23.1317877,8.56060665 C23.136774,7.26794737 24.2176507,6.213759 25.5338425,6.21809141 L25.5609795,6.2181856 Z" id="Fill-6" fill="#202020" mask="url(#mask-4)"></path>
                </g>
                <g id="Group-11" transform="translate(0.000000, 8.000000)">
                    <mask id="mask-6" fill="white">
                        <use xlink:href="#path-5"></use>
                    </mask>
                    <g id="Clip-10"></g>
                    <path d="M0.35548601,9.45040209 C3.21823212,15.762876 6.83548601,20.7404718 11.174885,24.9304578 C11.8174756,25.5510153 12.6138591,25.9979979 13.5199212,25.9979979 L17.5189057,25.9979979 C17.9158383,25.9979979 18.1325845,25.5212105 17.8402943,25.2603951 C10.3521078,18.5799352 4.9627399,10.557078 0.639848705,0.21532892 C0.505081865,-0.106908014 -3.73056995e-05,0.014395122 -3.73056995e-05,0.362179094 L-3.73056995e-05,8.10338467 C-3.73056995e-05,8.57437422 0.159910881,9.01936376 0.35548601,9.45040209" id="Fill-9" fill="#202020" mask="url(#mask-6)"></path>
                </g>
                <g id="Group-14" transform="translate(23.000000, 0.000000)">
                    <mask id="mask-8" fill="white">
                        <use xlink:href="#path-7"></use>
                    </mask>
                    <g id="Clip-13"></g>
                    <path d="M4.94370588,2.48618 C4.94370588,3.86018 3.85341176,4.97228 2.50635294,4.97228 C1.164,4.97228 0.0737058824,3.86018 0.0737058824,2.48618 C0.0737058824,1.11208 1.164,-2e-05 2.50635294,-2e-05 C3.85341176,-2e-05 4.94370588,1.11208 4.94370588,2.48618" id="Fill-12" fill="#202020" mask="url(#mask-8)"></path>
                </g>
            </g>
        </g>
    </g>
</svg>